{
	"asset":{
		"copyright":"Scooby",
		"generator":"Khronos glTF Blender I/O v3.6.28",
		"version":"2.0"
	},
	"scene":0,
	"scenes":[
		{
			"name":"Scene",
			"nodes":[
				0
			]
		}
	],
	"nodes":[
		{
			"mesh":0,
			"name":"Stormfist.Small",
			"translation":[
				0,
				1.441751480102539,
				0
			]
		}
	],
	"materials":[
		{
			"doubleSided":true,
			"name":"Rune",
			"normalTexture":{
				"index":0
			},
			"pbrMetallicRoughness":{
				"baseColorTexture":{
					"index":1
				},
				"metallicFactor":0,
				"metallicRoughnessTexture":{
					"index":2
				}
			}
		}
	],
	"meshes":[
		{
			"name":"Cylinder.001",
			"primitives":[
				{
					"attributes":{
						"POSITION":0,
						"NORMAL":1,
						"TEXCOORD_0":2
					},
					"indices":3,
					"material":0
				}
			]
		}
	],
	"textures":[
		{
			"sampler":0,
			"source":0
		},
		{
			"sampler":0,
			"source":1
		},
		{
			"sampler":0,
			"source":2
		}
	],
	"images":[
		{
			"bufferView":4,
			"mimeType":"image/png",
			"name":"Marble_Rune5_Rune_Normal"
		},
		{
			"bufferView":5,
			"mimeType":"image/png",
			"name":"Marble_Rune5_Rune_BaseColor"
		},
		{
			"bufferView":6,
			"mimeType":"image/png",
			"name":"Marble_Rune5_Rune_Roughness"
		}
	],
	"accessors":[
		{
			"bufferView":0,
			"componentType":5126,
			"count":18643,
			"max":[
				0.1133444681763649,
				0.05920723080635071,
				0.11520420014858246
			],
			"min":[
				-0.11286135017871857,
				-0.021860314533114433,
				-0.10493694245815277
			],
			"type":"VEC3"
		},
		{
			"bufferView":1,
			"componentType":5126,
			"count":18643,
			"type":"VEC3"
		},
		{
			"bufferView":2,
			"componentType":5126,
			"count":18643,
			"type":"VEC2"
		},
		{
			"bufferView":3,
			"componentType":5123,
			"count":66144,
			"type":"SCALAR"
		}
	],
	"bufferViews":[
		{
			"buffer":0,
			"byteLength":223716,
			"byteOffset":0,
			"target":34962
		},
		{
			"buffer":0,
			"byteLength":223716,
			"byteOffset":223716,
			"target":34962
		},
		{
			"buffer":0,
			"byteLength":149144,
			"byteOffset":447432,
			"target":34962
		},
		{
			"buffer":0,
			"byteLength":132288,
			"byteOffset":596576,
			"target":34963
		},
		{
			"buffer":0,
			"byteLength":850751,
			"byteOffset":728864
		},
		{
			"buffer":0,
			"byteLength":634558,
			"byteOffset":1579616
		},
		{
			"buffer":0,
			"byteLength":903554,
			"byteOffset":2214176
		}
	],
	"samplers":[
		{
			"magFilter":9729,
			"minFilter":9987
		}
	],
	"buffers":[
		{
			"byteLength":3117732,
			"uri":"data:application/octet-stream;base64,"
		}
	]
}
